<?xml version="1.0" encoding="UTF-8"?>
<svg version="1.1" xmlns="http://www.w3.org/2000/svg" width="1536" height="1024">
<path d="M0 0 C506.88 0 1013.76 0 1536 0 C1536 337.92 1536 675.84 1536 1024 C1029.12 1024 522.24 1024 0 1024 C0 686.08 0 348.16 0 0 Z " fill="#FDFDFD" transform="translate(0,0)"/>
<path d="M0 0 C0 30.36 0 60.72 0 92 C5.61 92 11.22 92 17 92 C20.63320958 92.18694917 24.19964788 92.4006523 27.8125 92.75 C29.18752686 92.88088013 29.18752686 92.88088013 30.59033203 93.0144043 C36.90848754 93.66813754 43.14055095 94.59894035 49.375 95.8125 C50.10952393 95.95333008 50.84404785 96.09416016 51.60083008 96.23925781 C59.56150179 97.90530336 67.26650081 100.51273945 75 103 C74.98334541 102.15127319 74.98334541 102.15127319 74.96635437 101.28540039 C74.8544117 95.31412803 74.77978377 89.34316072 74.7253418 83.37109375 C74.70043411 81.15222029 74.6664951 78.93342681 74.62280273 76.71484375 C74.19341463 54.32604289 77.5731154 36.15791171 93.640625 19.30859375 C106.34350298 6.87912208 120.50947531 0.68772358 138.25463867 0.61499023 C143.4284521 0.7122918 147.3574137 1.09506783 151.5234375 4.43359375 C156.80176878 10.03309334 159.12073937 14.64654393 159.14044189 22.40324402 C159.14489858 23.38245857 159.14489858 23.38245857 159.1494453 24.38145524 C159.15813094 26.57357098 159.1596405 28.76563208 159.16113281 30.95776367 C159.16576154 32.52828589 159.17078627 34.09880699 159.17617798 35.66932678 C159.18930944 39.94281399 159.19574983 44.21628548 159.20018864 48.48978972 C159.20312163 51.16489545 159.20722714 53.83999691 159.21169281 56.51510048 C159.22537734 64.89898572 159.23503607 73.28286117 159.2388947 81.66675681 C159.24336073 91.31612512 159.26083654 100.96535074 159.2898953 110.6146757 C159.31161014 118.0875388 159.32160438 125.56036208 159.32293582 133.03325635 C159.323978 137.4883185 159.32975797 141.94324671 159.34775543 146.39827538 C159.36440352 150.60162826 159.36631176 154.80474902 159.35761642 159.0081234 C159.35685457 160.53817879 159.36107395 162.06824752 159.37107468 163.59827042 C159.45662796 177.52185213 158.02258346 191.04374175 152.1875 203.875 C151.83494141 204.67671631 151.48238281 205.47843262 151.11914062 206.30444336 C140.12339713 230.85278993 120.16812577 251.11523761 95 261 C94.16726563 261.35578125 93.33453125 261.7115625 92.4765625 262.078125 C75.50126438 268.90902575 57.99982931 268.38797023 40 268 C42.51005798 265.46291013 45.04108537 263.12148273 47.8125 260.875 C58.8247028 251.23420536 64.19031723 238.63162515 65.25 224.2265625 C64.90935631 219.83012988 63.470759 216.6511721 60.53515625 213.35546875 C55.22316982 209.14251399 51.71624567 208.8776839 45.02832031 208.79467773 C44.3352327 208.78477814 43.64214508 208.77487854 42.92805481 208.76467896 C40.64477922 208.73317581 38.36148286 208.70835098 36.078125 208.68359375 C34.491999 208.66301455 32.90587836 208.64201782 31.31976318 208.62062073 C27.15069939 208.56549979 22.98158692 208.51604663 18.81243896 208.46777344 C14.55590497 208.41748544 10.29944142 208.36183751 6.04296875 208.30664062 C-2.30462789 208.19918113 -10.65228357 208.0977092 -19 208 C-19.06081253 208.68163208 -19.12162506 209.36326416 -19.1842804 210.06555176 C-19.2682457 210.96237671 -19.352211 211.85920166 -19.4387207 212.78320312 C-19.52015823 213.67108521 -19.60159576 214.55896729 -19.6855011 215.47375488 C-21.55353191 230.47890655 -32.2660708 245.11510489 -43.875 254.25 C-45.2325581 255.19230504 -46.6087574 256.10817782 -48 257 C-49.17949219 257.76957031 -49.17949219 257.76957031 -50.3828125 258.5546875 C-60.51214271 264.63228562 -74.12907125 268.91092999 -86 267 C-91.31858904 265.31713003 -95.04467519 262.81608488 -98 258 C-101.6356505 250.53788967 -101.41902568 243.37831586 -101.37231445 235.20898438 C-101.37474577 233.71653999 -101.37846839 232.22409723 -101.38337708 230.73165894 C-101.39274968 226.69390936 -101.38338778 222.65640379 -101.37004495 218.61867332 C-101.35867464 214.37407805 -101.36284269 210.12949384 -101.36479187 205.8848877 C-101.36567386 198.74971571 -101.35462083 191.61463888 -101.33618164 184.47949219 C-101.31508044 176.26805795 -101.31149092 168.05676367 -101.3177436 159.84530783 C-101.32347283 151.91103895 -101.3177458 143.97681864 -101.30657005 136.04255676 C-101.30196426 132.68413888 -101.30103266 129.32575109 -101.3031559 125.96733093 C-101.30506335 121.99456315 -101.29674991 118.02193426 -101.2810955 114.04919815 C-101.27691237 112.60461629 -101.27596085 111.16002018 -101.27878571 109.71543503 C-101.33127495 78.02549886 -92.66506963 51.16222027 -70.21875 28.1484375 C-63.48200351 21.59913464 -56.2476115 16.5477484 -48 12 C-46.31390625 11.05640625 -46.31390625 11.05640625 -44.59375 10.09375 C-30.12267281 2.40191618 -16.50387565 0 0 0 Z " fill="#8B30D0" transform="translate(388,371)"/>
<path d="M0 0 C0 30.36 0 60.72 0 92 C5.61 92 11.22 92 17 92 C20.63323799 92.18695063 24.19966917 92.40015614 27.8125 92.75 C28.73353516 92.83870361 29.65457031 92.92740723 30.60351562 93.01879883 C54.73607011 95.53570368 78.52459908 101.62583581 99 115 C99.7125293 115.46277344 100.42505859 115.92554688 101.15917969 116.40234375 C105.98469149 119.74767793 108.28021054 122.43651583 110.5 127.875 C110.9846875 129.02742187 111.469375 130.17984375 111.96875 131.3671875 C112.3090625 132.23601562 112.649375 133.10484375 113 134 C110 135 110 135 107.6953125 134.109375 C106.84710938 133.66078125 105.99890625 133.2121875 105.125 132.75 C103.78695312 132.05583984 103.78695312 132.05583984 102.421875 131.34765625 C100 130 100 130 97.375 128.1875 C94.84768631 126.92384315 93.69964667 126.87668209 90.9375 126.9375 C87 127 87 127 85.0703125 126.01953125 C70.44888229 118.81916656 39.62844759 128.73433799 25.203125 133.55078125 C24.47206543 133.80287354 23.74100586 134.05496582 22.98779297 134.31469727 C21.34342804 134.88160126 19.68491989 135.40729515 18.0234375 135.921875 C10.48607056 138.2786918 3.19159329 141.23613486 -3.81544495 144.88830566 C-5.50336759 145.74726962 -7.2319785 146.52654846 -8.97349548 147.27087402 C-15.3455291 150.2127759 -15.3455291 150.2127759 -19.07510376 155.82548523 C-19.43816198 159.32555841 -19.42811493 162.65191271 -19.28515625 166.16796875 C-19.2832579 167.43917068 -19.28135956 168.71037262 -19.27940369 170.02009583 C-19.26607358 173.39406024 -19.20301645 176.75911474 -19.1126709 180.13134766 C-18.9974391 184.85388867 -18.97137939 189.57762697 -18.94200134 194.30134583 C-18.9213458 196.80933652 -18.88038707 199.31727384 -18.81544495 201.82450867 C-18.63943988 212.58402943 -20.59529474 222.38692872 -25.5 232 C-25.84039307 232.6707959 -26.18078613 233.3415918 -26.53149414 234.03271484 C-32.00104149 244.2660615 -39.92578257 252.2406924 -50 258 C-50.65871094 258.43699219 -51.31742187 258.87398437 -51.99609375 259.32421875 C-61.28277231 265.17008635 -75.03695822 268.76478233 -86 267 C-91.31858904 265.31713003 -95.04467519 262.81608488 -98 258 C-101.6356505 250.53788967 -101.41902568 243.37831586 -101.37231445 235.20898438 C-101.37474577 233.71653999 -101.37846839 232.22409723 -101.38337708 230.73165894 C-101.39274968 226.69390936 -101.38338778 222.65640379 -101.37004495 218.61867332 C-101.35867464 214.37407805 -101.36284269 210.12949384 -101.36479187 205.8848877 C-101.36567386 198.74971571 -101.35462083 191.61463888 -101.33618164 184.47949219 C-101.31508044 176.26805795 -101.31149092 168.05676367 -101.3177436 159.84530783 C-101.32347283 151.91103895 -101.3177458 143.97681864 -101.30657005 136.04255676 C-101.30196426 132.68413888 -101.30103266 129.32575109 -101.3031559 125.96733093 C-101.30506335 121.99456315 -101.29674991 118.02193426 -101.2810955 114.04919815 C-101.27691237 112.60461629 -101.27596085 111.16002018 -101.27878571 109.71543503 C-101.33127495 78.02549886 -92.66506963 51.16222027 -70.21875 28.1484375 C-63.48200351 21.59913464 -56.2476115 16.5477484 -48 12 C-46.31390625 11.05640625 -46.31390625 11.05640625 -44.59375 10.09375 C-30.12267281 2.40191618 -16.50387565 0 0 0 Z " fill="#E26048" transform="translate(388,371)"/>
<path d="M0 0 C0 30.36 0 60.72 0 92 C5.61 92 11.22 92 17 92 C18.485 92.99 18.485 92.99 20 94 C19.42556152 93.97381592 18.85112305 93.94763184 18.25927734 93.9206543 C15.63146829 93.816082 13.00409769 93.75149056 10.375 93.6875 C9.47136719 93.64560547 8.56773437 93.60371094 7.63671875 93.56054688 C3.22559056 93.48005184 0.06403088 93.42583838 -3.421875 96.33203125 C-4.27265625 97.21246094 -5.1234375 98.09289062 -6 99 C-6.65226562 99.53625 -7.30453125 100.0725 -7.9765625 100.625 C-10.66345134 102.86619638 -12.87735154 104.82987472 -14.9375 107.6875 C-17.27939907 110.31326563 -19.24944823 110.86138494 -22.52734375 111.93359375 C-31.65836842 115.87161861 -39.84040091 123.26184685 -47.67578125 129.2890625 C-51.468486 132.05594884 -51.468486 132.05594884 -54.375 131.75 C-55.179375 131.37875 -55.179375 131.37875 -56 131 C-56.33 131.99 -56.66 132.98 -57 134 C-57.99 134 -58.98 134 -60 134 C-60 134.66 -60 135.32 -60 136 C-65.41176471 140 -65.41176471 140 -68 140 C-68 140.66 -68 141.32 -68 142 C-69.2719019 143.03135308 -70.59546473 143.99922235 -71.9375 144.9375 C-84.89749854 154.89580873 -92.25941306 169.58688749 -97 185 C-97.66 185 -98.32 185 -99 185 C-99.33 206.45 -99.66 227.9 -100 250 C-100.33 250 -100.66 250 -101 250 C-101.04686978 230.19723585 -101.08206188 210.39448306 -101.10362434 190.5916748 C-101.11390547 181.39540749 -101.12790479 172.19917478 -101.15087891 163.00292969 C-101.17091021 154.98078321 -101.18373938 146.95866181 -101.18817699 138.93649101 C-101.19076799 134.69491339 -101.19679079 130.4534075 -101.21146011 126.21185303 C-101.22519856 122.20639081 -101.2291904 118.20102874 -101.22621536 114.1955452 C-101.22675835 112.73805824 -101.23063777 111.28056737 -101.23841095 109.82310104 C-101.39907314 78.09948802 -92.68022206 51.17775577 -70.21875 28.1484375 C-63.48200351 21.59913464 -56.2476115 16.5477484 -48 12 C-46.31390625 11.05640625 -46.31390625 11.05640625 -44.59375 10.09375 C-30.12267281 2.40191618 -16.50387565 0 0 0 Z " fill="#EC782D" transform="translate(388,371)"/>
<path d="M0 0 C4.26611039 3.4187323 7.45517545 7.74052636 9.1875 12.9375 C9.27928838 15.03024721 9.30943705 17.12586833 9.30775452 19.22062683 C9.30981651 21.19572487 9.30981651 21.19572487 9.31192017 23.21072388 C9.30838099 24.67327904 9.30474618 26.13583396 9.30102539 27.59838867 C9.30074337 29.13575743 9.30090154 30.67312632 9.3014679 32.210495 C9.3017553 36.38788183 9.29586778 40.56524006 9.28889394 44.74262023 C9.28265091 49.10683914 9.28205585 53.47105868 9.28086853 57.83528137 C9.27775802 66.10127457 9.2695484 74.36725457 9.25951904 82.63324195 C9.24834922 92.04304604 9.24284526 101.45285075 9.23782361 110.86265981 C9.22736557 130.22094736 9.20977153 149.57922262 9.1875 168.9375 C8.5275 169.2675 7.8675 169.5975 7.1875 169.9375 C6.71152634 172.64349842 6.34656371 175.27345404 6.0625 178 C5.93294922 179.13791992 5.93294922 179.13791992 5.80078125 180.29882812 C5.58810483 182.17746986 5.38674541 184.05738636 5.1875 185.9375 C4.8575 185.9375 4.5275 185.9375 4.1875 185.9375 C4.07680176 185.33800537 3.96610352 184.73851074 3.85205078 184.12084961 C3.34234636 181.37157506 2.82746278 178.62329426 2.3125 175.875 C2.13847656 174.93205078 1.96445312 173.98910156 1.78515625 173.01757812 C1.2773202 170.31852357 0.74311273 167.62710016 0.1875 164.9375 C0.04280273 164.21965332 -0.10189453 163.50180664 -0.25097656 162.76220703 C-0.70122214 160.67000309 -0.70122214 160.67000309 -1.8125 157.9375 C-3.73641416 156.84271086 -3.73641416 156.84271086 -5.8125 155.9375 C-7.41796875 153.25 -7.41796875 153.25 -9 149.9375 C-15.1576214 138.07982991 -24.5965992 128.63255865 -36.8125 122.9375 C-37.4725 123.5975 -38.1325 124.2575 -38.8125 124.9375 C-39.43125 123.926875 -40.05 122.91625 -40.6875 121.875 C-48.39416329 111.21411578 -63.35708832 105.65514664 -74.8125 99.9375 C-74.94088858 93.39474828 -75.02750484 86.85232941 -75.0871582 80.30859375 C-75.11206589 78.08972029 -75.1460049 75.87092681 -75.18969727 73.65234375 C-75.61908537 51.26354289 -72.2393846 33.09541171 -56.171875 16.24609375 C-43.59858119 3.94341719 -17.81994261 -10.45208172 0 0 Z " fill="#26D6F5" transform="translate(537.8125,374.0625)"/>
<path d="M0 0 C0.79229004 0.00563965 1.58458008 0.0112793 2.40087891 0.01708984 C8.4191944 0.141777 13.57189616 0.88129036 19.125 3.3125 C20.09824219 3.7146875 21.07148437 4.116875 22.07421875 4.53125 C34.18707211 10.00255139 41.35265596 18.46400435 47.125 30.3125 C49.14305799 35.67574564 49.76145527 40.63427757 50.125 46.3125 C50.17914062 47.034375 50.23328125 47.75625 50.2890625 48.5 C50.81516397 61.50905441 46.25779806 73.71608025 37.9375 83.5625 C28.86633113 93.09617913 16.10952658 99.22267406 2.89306641 99.90649414 C-11.94799175 100.12121439 -25.24210506 95.51757006 -36.08203125 85.21484375 C-44.70150408 76.1476061 -49.90020557 64.60947425 -50.25 52.0625 C-49.83761838 36.18580774 -45.06207902 24.1105424 -34.2890625 12.62109375 C-24.89319696 3.84398033 -12.63631288 -0.09472498 0 0 Z " fill="#13AA7F" transform="translate(1130.875,446.6875)"/>
<path d="M0 0 C0.06998645 7.48532285 0.1230553 14.97061112 0.15543652 22.4561882 C0.17099005 25.93331334 0.19203537 29.41021211 0.22631836 32.88720703 C0.26561778 36.89878317 0.27979421 40.91012731 0.29296875 44.921875 C0.30845261 46.15049255 0.32393646 47.37911011 0.33988953 48.6449585 C0.34196147 59.4376464 -1.57645776 69.35000881 -6.5 79 C-6.84039307 79.6707959 -7.18078613 80.3415918 -7.53149414 81.03271484 C-13.00104149 91.2660615 -20.92578257 99.2406924 -31 105 C-31.65871094 105.43699219 -32.31742187 105.87398437 -32.99609375 106.32421875 C-42.28277231 112.17008635 -56.03695822 115.76478233 -67 114 C-72.34663709 112.30825527 -75.95920152 109.79510529 -79 105 C-80.77232952 101.25500818 -81.24536775 98.33042857 -81.22705078 94.19995117 C-81.22689972 93.05914597 -81.22674866 91.91834076 -81.22659302 90.7429657 C-81.21627045 89.52196671 -81.20594788 88.30096771 -81.1953125 87.04296875 C-81.1924826 85.78486893 -81.18965271 84.5267691 -81.18673706 83.23054504 C-81.17745121 79.89812618 -81.15950476 76.56598453 -81.1373291 73.23364258 C-81.11681017 69.82831203 -81.10772246 66.42295277 -81.09765625 63.01757812 C-81.0756164 56.34497582 -81.0421539 49.67250391 -81 43 C-80.67 43 -80.34 43 -80 43 C-80 52.9 -80 62.8 -80 73 C-76.86365298 69.86365298 -75.57344865 67.35500197 -73.6875 63.375 C-70.88443511 57.58489103 -67.79419413 52.2115655 -64 47 C-63.48953125 46.26007812 -62.9790625 45.52015625 -62.453125 44.7578125 C-61.73382813 43.88769531 -61.73382813 43.88769531 -61 43 C-60.34 43 -59.68 43 -59 43 C-58.73445313 42.4121875 -58.46890625 41.824375 -58.1953125 41.21875 C-51.31619538 28.44966986 -14.98513478 0 0 0 Z " fill="#BA1552" transform="translate(369,524)"/>
<path d="M0 0 C-1.86789791 2.28298634 -2.99798146 2.99938566 -5.875 3.875 C-9.68743879 5.24747796 -11.53976768 6.79424274 -14 10 C-13.69151207 11.67144371 -13.35480316 13.33777149 -13 15 C-13.27270458 16.81891306 -13.58665008 18.63203141 -13.9375 20.4375 C-14.4198285 24.37582162 -14.4198285 24.37582162 -12.67578125 27.73046875 C-10.7365122 29.17657547 -10.7365122 29.17657547 -8.5078125 30.47265625 C-5.60188544 32.24246541 -3.19394578 34.33388465 -0.625 36.5625 C14.42282025 48.81455036 31.68074107 50.66787018 50.4375 50.125 C52.79920311 50.0695553 55.16066633 50.02036545 57.52272034 49.9826355 C58.97309596 49.95828855 60.42334311 49.92324587 61.87315369 49.87600708 C63.58225253 49.84143406 65.29282255 49.91191306 67 50 C69 52 69 52 69 54 C67.35 54.66 65.7 55.32 64 56 C83.48940488 50.32771052 103.59609776 43.5994143 114.66015625 25.24609375 C118.29710428 18.39218924 120.46578159 11.5903437 122 4 C130.72301385 17.08452077 128.51905878 39.64725877 125.75 54.375 C124.21623052 60.7117002 122.30639326 66.90263852 120 73 C119.57267578 74.14855469 119.57267578 74.14855469 119.13671875 75.3203125 C114.03119469 87.87045535 105.24900695 98.57017771 95 107.2578125 C91.83947899 110.0109226 88.92103172 112.99681426 86 116 C87.65 116 89.3 116 91 116 C79.94247467 125.89357529 56.58115668 122.2927297 43 122 C45.51005798 119.46291013 48.04108537 117.12148273 50.8125 114.875 C61.8247028 105.23420536 67.19031723 92.63162515 68.25 78.2265625 C67.90935631 73.83012988 66.470759 70.6511721 63.53515625 67.35546875 C58.22316982 63.14251399 54.71624567 62.8776839 48.02832031 62.79467773 C47.3352327 62.78477814 46.64214508 62.77487854 45.92805481 62.76467896 C43.64477922 62.73317581 41.36148286 62.70835098 39.078125 62.68359375 C37.491999 62.66301455 35.90587836 62.64201782 34.31976318 62.62062073 C30.15069939 62.56549979 25.98158692 62.51604663 21.81243896 62.46777344 C17.55590497 62.41748544 13.29944142 62.36183751 9.04296875 62.30664062 C0.69537211 62.19918113 -7.65228357 62.0977092 -16 62 C-16.22840228 54.27759732 -16.38588741 46.55606622 -16.49438477 38.83105469 C-16.53961566 36.20409601 -16.60101248 33.57736354 -16.67895508 30.95117188 C-16.78828185 27.17260996 -16.83920076 23.3970435 -16.87890625 19.6171875 C-16.92535782 18.44509735 -16.97180939 17.2730072 -17.01966858 16.06539917 C-17.02459472 8.08906992 -17.02459472 8.08906992 -14.07711792 4.95611572 C-11.77327276 3.38960137 -9.53126061 2.15692306 -7 1 C-6.30503922 0.60118622 -5.61007843 0.20237244 -4.89405823 -0.20852661 C-3 -1 -3 -1 0 0 Z " fill="#441A88" transform="translate(385,517)"/>
<path d="M0 0 C7.26 0 14.52 0 22 0 C28.34468274 14.1509678 34.61956443 28.31971969 40.62207031 42.61987305 C43.36528521 49.15098593 46.14276019 55.66550716 48.953125 62.16796875 C49.64024723 63.7604041 50.32734031 65.35285202 51.0144043 66.9453125 C52.02982942 69.29844056 53.0466087 71.65093009 54.06802368 74.00146484 C55.01921663 76.19075459 55.96512382 78.38226413 56.91015625 80.57421875 C57.19300476 81.22110153 57.47585327 81.86798431 57.76727295 82.5344696 C59.5516626 86.68967328 60.73987617 90.58956658 62 95 C54.74 95 47.48 95 40 95 C37.36 88.73 34.72 82.46 32 76 C18.14 76 4.28 76 -10 76 C-13.93485266 85.35938861 -13.93485266 85.35938861 -17 95 C-24.26 95 -31.52 95 -39 95 C-38.25966962 90.55801771 -37.70501287 87.86601078 -35.98046875 83.94140625 C-35.32715576 82.43731201 -35.32715576 82.43731201 -34.66064453 80.90283203 C-34.17450684 79.80052246 -33.68836914 78.69821289 -33.1875 77.5625 C-32.39381037 75.73753848 -31.60019076 73.91254601 -30.80804443 72.08691406 C-30.21814351 70.72755367 -29.62749762 69.36851638 -29.03619385 68.00976562 C-24.95334035 58.61750412 -20.96098531 49.18651587 -16.9569397 39.76046753 C-14.81904696 34.72773724 -12.67921522 29.69583208 -10.5390625 24.6640625 C-9.94461082 23.26627815 -9.94461082 23.26627815 -9.33815002 21.84025574 C-6.23854851 14.55450418 -3.12383923 7.27539103 0 0 Z " fill="#0F2346" transform="translate(991,449)"/>
<path d="M0 0 C6.6 0 13.2 0 20 0 C20 12.87 20 25.74 20 39 C33.53 39 47.06 39 61 39 C61 26.13 61 13.26 61 0 C67.6 0 74.2 0 81 0 C81 31.35 81 62.7 81 95 C74.4 95 67.8 95 61 95 C61 82.46 61 69.92 61 57 C47.47 57 33.94 57 20 57 C20 69.54 20 82.08 20 95 C13.4 95 6.8 95 0 95 C0 63.65 0 32.3 0 0 Z " fill="#0D2244" transform="translate(606,449)"/>
<path d="M0 0 C0 30.03 0 60.06 0 91 C-20.27705004 88.29639333 -40.28987099 83.13351737 -53.8125 66.625 C-61.11985401 56.70666567 -62.907627 47.17516792 -62 35 C-60.14388747 26.37913999 -55.72852513 17.79613989 -48.78125 12.21875 C-33.76970161 2.66594648 -17.50401723 0 0 0 Z " fill="#3BAF4B" transform="translate(388,371)"/>
<path d="M0 0 C22.44 0 44.88 0 68 0 C68 5.94 68 11.88 68 18 C52.16 18 36.32 18 20 18 C20 24.93 20 31.86 20 39 C34.19 39 48.38 39 63 39 C63 44.61 63 50.22 63 56 C48.81 56 34.62 56 20 56 C20 62.93 20 69.86 20 77 C35.84 77 51.68 77 68 77 C68 82.94 68 88.88 68 95 C45.56 95 23.12 95 0 95 C0 63.65 0 32.3 0 0 Z " fill="#0E2345" transform="translate(709,449)"/>
<path d="M0 0 C1.34913981 0.97857016 2.68968806 1.97001922 4 3 C2.37815499 6.58513106 0.20743761 9.58992323 -2.125 12.75 C-2.84945313 13.73484375 -3.57390625 14.7196875 -4.3203125 15.734375 C-5.15175781 16.85585938 -5.15175781 16.85585938 -6 18 C-6.79664063 17.59007812 -7.59328125 17.18015625 -8.4140625 16.7578125 C-9.47367188 16.21898437 -10.53328125 15.68015625 -11.625 15.125 C-12.66914062 14.59132813 -13.71328125 14.05765625 -14.7890625 13.5078125 C-20.34177588 10.90033395 -24.90435466 9.6920092 -31.0625 9.625 C-32.84333984 9.58246094 -32.84333984 9.58246094 -34.66015625 9.5390625 C-38.61628308 10.08505427 -40.22654257 11.1755599 -43 14 C-43.96798233 17.09754346 -44.36911399 18.9841231 -43.25219727 22.05810547 C-39.42818729 27.98834048 -28.97132754 29.21526455 -22.5625 30.875 C-11.89305462 33.79972812 -2.23208714 37.25183667 4 47 C7.41830098 53.83660197 7.02434953 62.70880604 5.27734375 70.02734375 C2.21119875 78.28234953 -3.29787572 83.04705791 -11 87 C-23.79073867 92.58343549 -38.23772641 90.71689057 -50.9375 85.875 C-57.28834686 83.13202723 -62.60130754 79.28282099 -68 75 C-67.47898196 70.90322799 -66.38185567 68.86433761 -63.5625 65.875 C-61.45765739 63.61635887 -59.72295502 61.58443252 -58 59 C-55.02798898 60.39898717 -52.42983013 62.04330352 -49.75 63.9375 C-40.67962594 69.9403851 -32.83630416 70.93437337 -22 70 C-18.1331104 68.8639345 -17.29181963 68.43772945 -15 65 C-14.54864099 61.53958089 -14.74550597 59.53443747 -16.25 56.375 C-21.38195075 51.94286072 -28.10692485 50.7838067 -34.546875 49.0390625 C-45.59745125 46.02307553 -55.56636503 43.1227276 -62 33 C-65.64142864 25.64154212 -65.72272731 17.93233198 -64 10 C-60.65176057 1.33747308 -55.02076007 -2.98388591 -46.94921875 -7.02734375 C-31.51899391 -13.33310419 -13.40999964 -8.36262477 0 0 Z " fill="#27AE68" transform="translate(1259,456)"/>
<path d="M0 0 C0.66 0 1.32 0 2 0 C4 2 4 2 4.24609566 4.1357975 C4.24333028 5.47147553 4.24333028 5.47147553 4.24050903 6.83413696 C4.24325836 7.85499893 4.24600769 8.8758609 4.24884033 9.92765808 C4.2380545 11.6140313 4.2380545 11.6140313 4.22705078 13.33447266 C4.22734283 14.51494675 4.22763489 15.69542084 4.22793579 16.91166687 C4.22677917 20.15324919 4.21673177 23.39466002 4.20278788 26.63620806 C4.19030614 30.02214345 4.18911204 33.40808202 4.18673706 36.79403687 C4.18051475 43.20783459 4.16409382 49.62156433 4.14403808 56.03533208 C4.1217024 63.33631825 4.11069153 70.63730763 4.10064721 77.93831944 C4.07972821 92.95891754 4.0445377 107.97945198 4 123 C3.01 123.495 3.01 123.495 2 124 C1.52402634 126.70599842 1.15906371 129.33595404 0.875 132.0625 C0.74544922 133.20041992 0.74544922 133.20041992 0.61328125 134.36132812 C0.40060483 136.23996986 0.19924541 138.11988636 0 140 C-0.33 140 -0.66 140 -1 140 C-1.11069824 139.40050537 -1.22139648 138.80101074 -1.33544922 138.18334961 C-1.84515364 135.43407506 -2.36003722 132.68579426 -2.875 129.9375 C-3.04902344 128.99455078 -3.22304688 128.05160156 -3.40234375 127.08007812 C-3.9101798 124.38102357 -4.44438727 121.68960016 -5 119 C-5.2170459 117.92322998 -5.2170459 117.92322998 -5.43847656 116.82470703 C-5.88872214 114.73250309 -5.88872214 114.73250309 -7 112 C-8.92391416 110.90521086 -8.92391416 110.90521086 -11 110 C-12.60546875 107.3125 -12.60546875 107.3125 -14.1875 104 C-20.3451214 92.14232991 -29.7840992 82.69505865 -42 77 C-42.66 77.66 -43.32 78.32 -44 79 C-44.61875 77.989375 -45.2375 76.97875 -45.875 75.9375 C-53.0610716 65.99676762 -67.70952502 59.23661633 -79 55 C-79 54.67 -79 54.34 -79 54 C-78.21496094 53.87882812 -77.42992187 53.75765625 -76.62109375 53.6328125 C-75.04521484 53.38144531 -75.04521484 53.38144531 -73.4375 53.125 C-72.40496094 52.96257812 -71.37242187 52.80015625 -70.30859375 52.6328125 C-49.23400712 48.60201789 -24.84083323 39.06422301 -12 21 C-8.43863094 15.40168553 -5.2792709 9.57951345 -2.33203125 3.63671875 C-1 1 -1 1 0 0 Z " fill="#2085E0" transform="translate(543,420)"/>
<path d="M0 0 C14.79970225 6.4225123 25.37387691 17.94608044 32.45703125 32.1796875 C33.82244093 34.675449 35.01228688 36.05670505 37 38 C39.93319677 44.25748643 40.88810103 51.24307547 42 58 C42.66 54.7 43.32 51.4 44 48 C44.99 47.67 45.98 47.34 47 47 C46.57027426 72.00222484 34.92808155 94.07948486 18 112 C17.32324219 112.7528125 16.64648438 113.505625 15.94921875 114.28125 C5.42411954 125.53973654 -11.55841599 137.54757876 -27.4375 138.125 C-28.283125 138.08375 -29.12875 138.0425 -30 138 C-25.6309657 132.75715884 -21.16722236 127.48058696 -16 123 C-15.34 123 -14.68 123 -14 123 C-13.73703125 122.41605469 -13.4740625 121.83210937 -13.203125 121.23046875 C-11.94463607 118.89736103 -10.55249646 117.24896579 -8.75 115.3125 C8.59228588 95.56952579 12.0996878 69.38500849 11.19042969 43.92578125 C10.8325347 38.42704595 9.77742676 33.22648106 8 28 C7.34 28 6.68 28 6 28 C6 25.36 6 22.72 6 20 C5.34 20 4.68 20 4 20 C2.2362764 13.34443923 0.65965039 6.86036401 0 0 Z " fill="#6336D2" transform="translate(500,496)"/>
<path d="M0 0 C0 3 0 3 -1.75 5.5 C-7.72107354 14.20070716 -9.17851745 23.62904648 -8 34 C-6.26725883 41.07241292 -3.44718548 47.55281452 1.75 52.75 C3 54 3 54 3 56 C3.56589844 56.26167969 4.13179688 56.52335937 4.71484375 56.79296875 C7.19362873 58.10227569 9.31288857 59.64104242 11.5625 61.3125 C21.254976 68.12266536 31.61062882 71.29361477 43 74 C43.85207031 74.2165625 44.70414062 74.433125 45.58203125 74.65625 C51.73779319 76.0824572 57.9032055 76.3733571 64.20068359 76.57104492 C67.957699 76.72069094 69.80016642 76.86677761 73 79 C72.42556152 78.97381592 71.85112305 78.94763184 71.25927734 78.9206543 C68.63146829 78.816082 66.00409769 78.75149056 63.375 78.6875 C62.47136719 78.64560547 61.56773437 78.60371094 60.63671875 78.56054688 C56.22559056 78.48005184 53.06403088 78.42583838 49.578125 81.33203125 C48.72734375 82.21246094 47.8765625 83.09289062 47 84 C46.34773438 84.53625 45.69546875 85.0725 45.0234375 85.625 C42.33654866 87.86619638 40.12264846 89.82987472 38.0625 92.6875 C35.72060093 95.31326563 33.75055177 95.86138494 30.47265625 96.93359375 C22.59467242 100.33120763 15.5017154 106.54779017 8.72265625 111.71484375 C6.21568198 113.58512614 3.62200331 115.29569785 1 117 C-12.54218527 106.37729883 -19.83597058 91.69665262 -23 75 C-23.42412013 70.22070049 -23.47730099 65.48351919 -23.4375 60.6875 C-23.42992676 59.4094751 -23.42235352 58.1314502 -23.41455078 56.81469727 C-23.11534787 39.68260041 -18.13264834 25.84050435 -8.19921875 11.83984375 C-6.82795417 9.9057104 -6.82795417 9.9057104 -6 7 C-7.32 7.33 -8.64 7.66 -10 8 C-6.88983545 4.71211176 -3.98381075 2.16264012 0 0 Z " fill="#F7BD1F" transform="translate(335,386)"/>
<path d="M0 0 C3.51905207 -0.29261658 7.03497551 -0.46861829 10.5625 -0.625 C12.0484668 -0.75068359 12.0484668 -0.75068359 13.56445312 -0.87890625 C17.7842494 -1.01909882 20.77316604 -1.1136408 23.99780273 1.81347656 C25.88065735 4.45358651 27.44132683 7.15656467 29 10 C30.31666035 12.12807322 31.63845807 14.25297475 32.96484375 16.375 C34.29290663 18.58102366 35.61709218 20.78938592 36.9375 23 C37.62803074 24.14206283 38.31878488 25.28399063 39.00976562 26.42578125 C39.65494141 27.50214844 40.30011719 28.57851563 40.96484375 29.6875 C41.5487085 30.66074219 42.13257324 31.63398438 42.73413086 32.63671875 C44 35 44 35 44 37 C46.83004958 34.34354293 48.8783001 31.82199178 50.76953125 28.4375 C51.26106689 27.56311279 51.75260254 26.68872559 52.2590332 25.7878418 C52.77167725 24.867854 53.28432129 23.94786621 53.8125 23 C54.35672607 22.06260986 54.90095215 21.12521973 55.46166992 20.15942383 C58.88530287 14.23812976 58.88530287 14.23812976 61.53125 7.94921875 C62.99570826 4.22110093 63.73619992 2.36888715 67 0 C74.56692362 -1.42043714 82.38428167 -0.72504092 90 0 C88.50703634 5.47132348 85.87434333 9.67974341 82.8125 14.375 C81.73351152 16.05413295 80.65543198 17.73385023 79.578125 19.4140625 C79.00255859 20.30899414 78.42699219 21.20392578 77.83398438 22.12597656 C73.88347514 28.31679056 70.03142544 34.57022722 66.1652832 40.81396484 C65.56546631 41.7777002 64.96564941 42.74143555 64.34765625 43.734375 C63.82179932 44.58225586 63.29594238 45.43013672 62.75415039 46.30371094 C61 49 61 49 59.70378113 50.56092834 C55.80811229 55.37706712 55.26359591 59.11307815 55.29296875 65.21484375 C55.27784744 66.07058487 55.26272614 66.92632599 55.24714661 67.80799866 C55.20445449 70.51810436 55.19544982 73.22709232 55.1875 75.9375 C55.16434122 77.78453454 55.13897301 79.63154278 55.11132812 81.47851562 C55.04453148 85.98627715 55.02338487 90.49097275 55 95 C48.4 95 41.8 95 35 95 C35.05542969 92.38191406 35.11085938 89.76382813 35.16796875 87.06640625 C36.04544473 62.13352572 36.04544473 62.13352572 24.63525391 40.96435547 C21.42988654 37.11389476 19.00530456 32.72656758 16.4375 28.4375 C15.35160336 26.66764525 14.26309694 24.89938886 13.171875 23.1328125 C12.64400391 22.2759082 12.11613281 21.41900391 11.57226562 20.53613281 C10.04644335 18.07491514 8.50394722 15.62521484 6.953125 13.1796875 C6.48463135 12.43920166 6.0161377 11.69871582 5.53344727 10.93579102 C4.65737654 9.5537509 3.77783109 8.17390528 2.89428711 6.79663086 C0 2.22175077 0 2.22175077 0 0 Z " fill="#0E2345" transform="translate(785,449)"/>
<path d="M0 0 C0.33 0 0.66 0 1 0 C1.495 3.96 1.495 3.96 2 8 C2.33 8 2.66 8 3 8 C3.054138 10.24973447 3.09285491 12.49984383 3.125 14.75 C3.14820313 16.00296875 3.17140625 17.2559375 3.1953125 18.546875 C3.01537302 21.72820492 2.68998582 23.36521896 1 26 C1 24.02 1 22.04 1 20 C-2.76385558 22.50923705 -3.80735544 25.46544148 -5.625 29.4375 C-14.33118577 47.53858797 -29.40184658 59.98372191 -48.1484375 67.09765625 C-52.53283287 68.48504711 -56.98695097 69.57590473 -61.46777344 70.60620117 C-65.30776444 71.47673366 -65.30776444 71.47673366 -68.89306641 73.05029297 C-71.488572 74.22022538 -73.41693045 74.19955446 -76.25 74.125 C-77.14203125 74.10695313 -78.0340625 74.08890625 -78.953125 74.0703125 C-79.62859375 74.04710937 -80.3040625 74.02390625 -81 74 C-81.12838858 67.45724828 -81.21500484 60.91482941 -81.2746582 54.37109375 C-81.29956589 52.15222029 -81.3335049 49.93342681 -81.37719727 47.71484375 C-81.96905375 16.85475046 -81.96905375 16.85475046 -74.33325195 8.0859375 C-73.67329224 7.54839844 -73.67329224 7.54839844 -73 7 C-72.12988281 8.77117187 -72.12988281 8.77117187 -71.2421875 10.578125 C-70.45394921 12.13583401 -69.66484053 13.6931028 -68.875 15.25 C-68.49601562 16.02730469 -68.11703125 16.80460937 -67.7265625 17.60546875 C-64.67019685 23.56538177 -61.53754356 26.82081881 -55 29 C-39.26106196 29.96132718 -25.9231326 27.05666894 -13.2265625 17.5859375 C-11 16 -11 16 -8.8359375 15.0390625 C-6.45564049 13.69191568 -6.03937056 12.50514955 -5 10 C-3.33333333 6.66666667 -1.66666667 3.33333333 0 0 Z " fill="#21B3E9" transform="translate(544,400)"/>
<path d="M0 0 C8.49109701 4.91084448 13.89757311 12.40461163 16.5 21.8125 C17.66763376 32.65305769 16.37430151 41.98352935 9.9609375 50.96875 C4.14112262 57.4781164 -4.26893176 60.41824992 -12.85546875 60.97265625 C-20.13046748 60.53207287 -27.6548929 57.87760264 -32.96875 52.78515625 C-40.21371321 43.4517215 -42.51173963 33.38969207 -41.5 21.8125 C-39.42385455 13.09519048 -34.42199994 6.85405097 -27.4375 1.4375 C-18.90327258 -3.28356198 -8.92903884 -4.25065022 0 0 Z " fill="#FBFDFD" transform="translate(1143.5,467.1875)"/>
<path d="M0 0 C0.33 0 0.66 0 1 0 C1 18.15 1 36.3 1 55 C1.66 55 2.32 55 3 55 C3.0825 54.19949219 3.165 53.39898438 3.25 52.57421875 C6.51601951 37.00959451 17.01892041 21.12099837 30 12 C30.66 12 31.32 12 32 12 C32 11.34 32 10.68 32 10 C36.67316352 6.46663246 41.99891297 3 48 3 C49.66151708 4.00443628 51.2813341 5.07855444 52.875 6.1875 C58.94002644 10.16918181 65.20068274 12.56589831 72 15 C75.74337319 16.50910856 79.41761819 18.13716146 83 20 C82.01 20 81.02 20 80 20 C80 20.66 80 21.32 80 22 C80.66 22.33 81.32 22.66 82 23 C80.52466797 23.73089844 80.52466797 23.73089844 79.01953125 24.4765625 C59.27903032 34.47352482 37.77591024 47.19746865 23 64 C22.36964844 64.7115625 21.73929687 65.423125 21.08984375 66.15625 C13.52510962 75.13481691 8.06335569 85.45134231 3 96 C2.34 96 1.68 96 1 96 C0.13773676 75.10485942 -0.13324649 54.25555631 -0.06866455 33.3449707 C-0.05815982 29.56201779 -0.05381085 25.77905725 -0.04882812 21.99609375 C-0.0383214 14.66404305 -0.02141653 7.33202786 0 0 Z " fill="#E53646" transform="translate(288,501)"/>
<path d="M0 0 C6.6 0 13.2 0 20 0 C20 25.41 20 50.82 20 77 C33.53 77 47.06 77 61 77 C61 82.94 61 88.88 61 95 C40.87 95 20.74 95 0 95 C0 63.65 0 32.3 0 0 Z " fill="#0D2143" transform="translate(887,449)"/>
<path d="M0 0 C0.495 0.99 0.495 0.99 1 2 C2.093125 1.87625 3.18625 1.7525 4.3125 1.625 C9.49788027 1.58815893 13.06683423 3.95613729 17.43359375 6.53125 C20.20130228 8.11520496 22.92261733 9.16827495 26 10 C25.54947266 9.16855469 25.54947266 9.16855469 25.08984375 8.3203125 C24.70957031 7.59585937 24.32929688 6.87140625 23.9375 6.125 C23.55464844 5.40570313 23.17179687 4.68640625 22.77734375 3.9453125 C22.52082031 3.30335938 22.26429688 2.66140625 22 2 C22.33 1.34 22.66 0.68 23 0 C27.68657052 6.30262933 30.61553631 12.99802793 30 21 C30.66 21 31.32 21 32 21 C32.63998784 30.61403949 32.02028391 38.57157969 27 47 C20.93464991 51.04356673 10.76639552 47.56014633 3.7734375 46.21484375 C-4.97514686 44.36997486 -11.74541773 41.27878132 -19 36 C-31.47722808 27.20137287 -42.24772879 21.34606559 -57.8125 20.4375 C-58.50537109 20.39431641 -59.19824219 20.35113281 -59.91210938 20.30664062 C-61.60788686 20.20138547 -63.30392052 20.10027137 -65 20 C-61.87029723 16.50361985 -58.2819202 15.64597206 -53.875 14.4375 C-52.7921875 14.12522461 -52.7921875 14.12522461 -51.6875 13.80664062 C-41.12523542 10.80898724 -30.4664935 9.06849049 -19.62304688 7.41210938 C-18.54216797 7.24388672 -17.46128906 7.07566406 -16.34765625 6.90234375 C-14.87824585 6.67792603 -14.87824585 6.67792603 -13.37915039 6.44897461 C-10.99470855 6.1113523 -10.99470855 6.1113523 -9 5 C-9.495 4.01 -9.495 4.01 -10 3 C-12.71446979 2.68758545 -15.33909361 2.48663408 -18.0625 2.375 C-19.20041992 2.31699219 -19.20041992 2.31699219 -20.36132812 2.2578125 C-22.24047195 2.16326438 -24.12020336 2.08053244 -26 2 C-26 1.67 -26 1.34 -26 1 C-17.30019136 -0.01286753 -8.74507107 -0.10621544 0 0 Z " fill="#A444E3" transform="translate(474,495)"/>
<path d="M0 0 C0.65355469 0.59748047 0.65355469 0.59748047 1.3203125 1.20703125 C4.28472033 3.84419926 6.74043939 5.87983305 10.375 7.5625 C13 9 13 9 13.75390625 11.2734375 C14.02966442 14.32866289 13.54369848 16.17123515 12.5625 19.0625 C9.50871315 29.53262636 10.16230154 39.81139078 15.32421875 49.48046875 C19.85969529 56.77770529 25.10639423 60.27487088 33.359375 62.5234375 C41.3054004 63.9574835 48.9813603 61.76124098 56 58 C58.54416854 56.13852427 60.71381907 54.18678176 63 52 C64.20442708 53.49739583 65.40885417 54.99479167 66.61328125 56.4921875 C68.12270545 58.25292107 68.12270545 58.25292107 71 60 C71 60.66 71 61.32 71 62 C71.78375 61.938125 72.5675 61.87625 73.375 61.8125 C74.674375 61.9053125 74.674375 61.9053125 76 62 C76.66 62.99 77.32 63.98 78 65 C71.52390307 71.44800106 65.54394262 75.76269633 57 79 C56.30777344 79.31839844 55.61554688 79.63679687 54.90234375 79.96484375 C43.52024717 84.72383211 29.83736903 82.69362305 18.59765625 78.54296875 C4.83602448 72.64085741 -3.47112537 62.21261702 -8.96875 48.6015625 C-13.28756292 36.24495886 -11.71498483 21.22946458 -6.0625 9.5 C-4.22629007 6.21041927 -2.15959972 3.08514246 0 0 Z " fill="#0D8BD1" transform="translate(1092,464)"/>
<path d="M0 0 C1.15242188 0.00902344 2.30484375 0.01804687 3.4921875 0.02734375 C4.36101562 0.03894531 5.22984375 0.05054688 6.125 0.0625 C6.15027062 6.45287231 6.16783317 12.84323183 6.17993164 19.23364258 C6.18497308 21.40942873 6.19180607 23.58521147 6.20043945 25.76098633 C6.21251338 28.88103067 6.21823005 32.00103038 6.22265625 35.12109375 C6.22781754 36.10025253 6.23297882 37.07941132 6.23829651 38.08824158 C6.23837204 38.98909988 6.23844757 39.88995819 6.23852539 40.81811523 C6.240746 41.61531479 6.24296661 42.41251434 6.24525452 43.23387146 C6.125 45.0625 6.125 45.0625 5.125 46.0625 C-8.2145714 46.76031213 -20.91873773 46.64641457 -31.875 38.0625 C-41.74015636 28.37911369 -41.74015636 28.37911369 -42.0703125 22.70703125 C-42.04710937 21.44246094 -42.02390625 20.17789062 -42 18.875 C-41.98195313 17.60269531 -41.96390625 16.33039063 -41.9453125 15.01953125 C-41.92210937 14.04371094 -41.89890625 13.06789063 -41.875 12.0625 C-28.73310235 4.85369327 -15.22571515 -0.15536444 0 0 Z " fill="#71C94C" transform="translate(381.875,370.9375)"/>
<path d="M0 0 C7.88650861 1.83537082 16.05846453 1.47929702 24.11328125 1.61328125 C26.00046875 1.65775391 26.00046875 1.65775391 27.92578125 1.703125 C29.63870361 1.73116211 29.63870361 1.73116211 31.38623047 1.75976562 C34.24609375 2.046875 34.24609375 2.046875 37.24609375 4.046875 C36.67165527 4.02069092 36.0972168 3.99450684 35.50537109 3.9675293 C32.87756204 3.862957 30.25019144 3.79836556 27.62109375 3.734375 C26.71746094 3.69248047 25.81382812 3.65058594 24.8828125 3.60742188 C20.47168431 3.52692684 17.31012463 3.47271338 13.82421875 6.37890625 C12.9734375 7.25933594 12.12265625 8.13976562 11.24609375 9.046875 C10.59382813 9.583125 9.9415625 10.119375 9.26953125 10.671875 C6.58264241 12.91307138 4.36874221 14.87674972 2.30859375 17.734375 C-0.03330532 20.36014063 -2.00335448 20.90825994 -5.28125 21.98046875 C-13.15923383 25.37808263 -20.25219085 31.59466517 -27.03125 36.76171875 C-29.53822427 38.63200114 -32.13190294 40.34257285 -34.75390625 42.046875 C-41.02102664 37.13084809 -45.49260288 31.75707929 -49.75390625 25.046875 C-50.5428125 23.82291016 -50.5428125 23.82291016 -51.34765625 22.57421875 C-52.79045313 19.98119213 -53.64285926 17.58632854 -54.44140625 14.734375 C-54.69277344 13.85136719 -54.94414062 12.96835937 -55.203125 12.05859375 C-55.38488281 11.39472656 -55.56664062 10.73085938 -55.75390625 10.046875 C-55.2345752 10.23475586 -54.71524414 10.42263672 -54.18017578 10.61621094 C-50.86891492 11.20396141 -48.23131351 10.58260138 -44.93359375 9.9375 C-44.27489288 9.8100238 -43.61619202 9.68254761 -42.93753052 9.5512085 C-41.54316395 9.27943129 -40.1496066 9.00347357 -38.75683594 8.72363281 C-36.6587735 8.3028649 -34.55833163 7.89643579 -32.45703125 7.4921875 C-19.62958682 5.80344052 -19.62958682 5.80344052 -8.75390625 0.046875 C-5.35546284 -1.1889226 -3.54876082 -0.90103813 0 0 Z " fill="#F7A122" transform="translate(370.75390625,460.953125)"/>
<path d="M0 0 C-1.86789791 2.28298634 -2.99798146 2.99938566 -5.875 3.875 C-9.68743879 5.24747796 -11.53976768 6.79424274 -14 10 C-13.69151207 11.67144371 -13.35480316 13.33777149 -13 15 C-13.27270458 16.81891306 -13.58665008 18.63203141 -13.9375 20.4375 C-14.4198285 24.37582162 -14.4198285 24.37582162 -12.67578125 27.73046875 C-10.7365122 29.17657547 -10.7365122 29.17657547 -8.5078125 30.47265625 C-5.60188544 32.24246541 -3.19394578 34.33388465 -0.625 36.5625 C14.42282025 48.81455036 31.68074107 50.66787018 50.4375 50.125 C52.79920311 50.0695553 55.16066633 50.02036545 57.52272034 49.9826355 C58.97309596 49.95828855 60.42334311 49.92324587 61.87315369 49.87600708 C63.58225253 49.84143406 65.29282255 49.91191306 67 50 C69 52 69 52 69 54 C67.824375 54.433125 66.64875 54.86625 65.4375 55.3125 C61.56966026 56.76035445 57.78332991 58.34479317 54 60 C54 60.66 54 61.32 54 62 C30.9 62 7.8 62 -16 62 C-16.185625 53.04875 -16.37125 44.0975 -16.5625 34.875 C-16.64443604 32.0582373 -16.72637207 29.24147461 -16.81079102 26.33935547 C-16.83708419 24.09867204 -16.86001638 21.85794557 -16.87890625 19.6171875 C-16.92494995 18.46033447 -16.97099365 17.30348145 -17.01843262 16.11157227 C-17.02625011 8.09082948 -17.02625011 8.09082948 -14.07711792 4.95611572 C-11.77327276 3.38960137 -9.53126061 2.15692306 -7 1 C-6.30503922 0.60118622 -5.61007843 0.20237244 -4.89405823 -0.20852661 C-3 -1 -3 -1 0 0 Z " fill="#52229B" transform="translate(385,517)"/>
<path d="M0 0 C0.33 0 0.66 0 1 0 C0.9175 1.11375 0.835 2.2275 0.75 3.375 C0.7767711 10.9378355 4.05351096 17.85313486 9.1640625 23.33984375 C19.87172069 33.02230062 30.76972355 36.94841567 44.875 38.0625 C46.76855667 38.21606592 48.66181236 38.37340633 50.5546875 38.53515625 C51.38468262 38.600979 52.21467773 38.66680176 53.06982422 38.73461914 C55 39 55 39 56 40 C56.08685603 41.56172745 56.10702219 43.12729344 56.09765625 44.69140625 C56.09443359 45.63564453 56.09121094 46.57988281 56.08789062 47.55273438 C56.07532227 49.04256836 56.07532227 49.04256836 56.0625 50.5625 C56.05798828 51.55958984 56.05347656 52.55667969 56.04882812 53.58398438 C56.03700007 56.05604849 56.02051849 58.52799518 56 61 C36.31847111 58.96816266 16.13818788 52.43528775 3.1875 36.625 C-1.66212987 30.04255574 -5.11671804 22.76733271 -5.1875 14.5 C-5.20167969 13.7471875 -5.21585937 12.994375 -5.23046875 12.21875 C-4.97143911 9.72504094 -4.21566963 8.17469789 -3 6 C-2.649375 5.113125 -2.29875 4.22625 -1.9375 3.3125 C-1 1 -1 1 0 0 Z " fill="#278B4A" transform="translate(331,401)"/>
<path d="M0 0 C0 1.66666667 0 3.33333333 0 5 C-0.89082275 5.12528076 -1.78164551 5.25056152 -2.69946289 5.37963867 C-6.08405593 5.86252626 -9.46633678 6.35806257 -12.84790039 6.86157227 C-14.29673274 7.07480027 -15.74626692 7.28332593 -17.1965332 7.48657227 C-26.4291688 8.78446099 -34.97075485 10.70433709 -43.75268555 13.86474609 C-46.73477488 14.90727789 -49.6764821 15.71869108 -52.75 16.4375 C-62.4200716 18.9980663 -76.80756455 25.92985832 -83 34 C-84.15753686 40.18487834 -82.67887243 46.03732628 -80.65625 51.87109375 C-80 54 -80 54 -80 57 C-81.01320313 56.18595703 -81.01320313 56.18595703 -82.046875 55.35546875 C-82.93890625 54.64003906 -83.8309375 53.92460938 -84.75 53.1875 C-85.63171875 52.47980469 -86.5134375 51.77210938 -87.421875 51.04296875 C-89.86961293 48.98774881 -89.86961293 48.98774881 -92.34375 47.70703125 C-94 46 -94 46 -94.171875 42.53125 C-94.05242551 41.18545237 -93.91097571 39.84146423 -93.75 38.5 C-93.61946734 37.15628147 -93.48924747 35.8125325 -93.359375 34.46875 C-93.24078125 33.3240625 -93.1221875 32.179375 -93 31 C-93 30.01 -93 29.02 -93 28 C-89.34541408 24.4529019 -85.2174872 22 -80 22 C-80 20.68 -80 19.36 -80 18 C-72.14963784 14.02703411 -64.47535544 11.03246401 -56.00219727 8.73754883 C-52.69479604 7.83424554 -49.67972575 6.86125044 -46.51953125 5.4921875 C-31.7206178 -0.7821576 -15.78188825 -0.52680587 0 0 Z " fill="#7632BD" transform="translate(464,497)"/>
<path d="M0 0 C0.66 0 1.32 0 2 0 C3.85371245 4.25314753 5.70506408 8.50731157 7.55419922 12.76245117 C8.18407841 14.21097821 8.81461103 15.65922129 9.44580078 17.10717773 C10.35098945 19.18399601 11.25385192 21.2618117 12.15625 23.33984375 C12.44060913 23.99089584 12.72496826 24.64194794 13.01794434 25.31272888 C15 29.88612829 15 29.88612829 15 31 C6.09 31 -2.82 31 -12 31 C-8.625 19.75 -8.625 19.75 -6.73828125 15.4296875 C-6.34189453 14.51445312 -5.94550781 13.59921875 -5.53710938 12.65625 C-5.13298828 11.7384375 -4.72886719 10.820625 -4.3125 9.875 C-3.89677734 8.91851562 -3.48105469 7.96203125 -3.05273438 6.9765625 C-2.04015854 4.64880196 -1.02253838 2.32339703 0 0 Z " fill="#F7F7F8" transform="translate(1001,475)"/>
<path d="M0 0 C2.91128986 1.85854665 5.42922037 3.85844074 7 7 C7.44408691 10.9079648 7.13704844 12.74548146 5.25 16.25 C3.06805131 18.91682618 2.10529281 19.79648615 -1 21 C-4.81244119 21.32736525 -8.48599541 21.03956997 -11.6953125 18.8359375 C-14.1594124 16.20287075 -14.99560605 14.02734011 -15.5625 10.5 C-14.79356044 5.71548717 -13.00200563 2.58779757 -9.1875 -0.4375 C-5.77623408 -1.31468266 -3.40094183 -0.87955392 0 0 Z " fill="#FAF6FD" transform="translate(429,530)"/>
<path d="M0 0 C2.6875 -0.375 2.6875 -0.375 6 0 C8.33977608 1.80800879 9.36642107 3.42587563 11 6 C11.1875 8.1875 11.1875 8.1875 10 10 C6.25241255 12.38482838 3.43651689 13.39145737 -1 13 C-1.2236337 11.58566794 -1.42826476 10.16832382 -1.625 8.75 C-1.74101562 7.96109375 -1.85703125 7.1721875 -1.9765625 6.359375 C-2.00319395 3.67847541 -1.36592084 2.27305911 0 0 Z " fill="#CBF6FB" transform="translate(496,452)"/>
<path d="M0 0 C3.38028946 1.31121549 6.6195012 2.78274669 9.875 4.375 C19.69764937 8.86876267 30.40519905 11.1054003 41 13 C41 13.33 41 13.66 41 14 C34.24966015 14.19951743 28.46707678 14.15569226 22 12 C20.3968943 11.74328461 18.79260894 11.49387702 17.1875 11.25 C11.45775638 10.14441394 6.5469997 7.65508822 2 4 C0.71875 1.8046875 0.71875 1.8046875 0 0 Z " fill="#FACE3B" transform="translate(347,449)"/>
<path d="M0 0 C0.33 0 0.66 0 1 0 C1.66 3.63 2.32 7.26 3 11 C3.66 7.7 4.32 4.4 5 1 C5.99 0.67 6.98 0.34 8 0 C7.59722507 7.54673035 7.17808026 14.73973247 5 22 C-0.61076515 15.87916529 -0.28752602 7.79514995 0 0 Z " fill="#4F5CE8" transform="translate(539,543)"/>
<path d="M0 0 C-1.86789791 2.28298634 -2.99798146 2.99938566 -5.875 3.875 C-9.68743879 5.24747796 -11.53976768 6.79424274 -14 10 C-13.68847977 11.67088122 -13.35185068 13.33714403 -13 15 C-13.33984375 17.89453125 -13.33984375 17.89453125 -13.9375 20.8125 C-14.13214844 21.78832031 -14.32679688 22.76414062 -14.52734375 23.76953125 C-14.68332031 24.50558594 -14.83929688 25.24164062 -15 26 C-15.33 26 -15.66 26 -16 26 C-17.3742692 8.86405068 -17.3742692 8.86405068 -14.13671875 4.47265625 C-11.78855707 2.96230021 -9.62542055 1.93454539 -7 1 C-6.30390625 0.60941406 -5.6078125 0.21882812 -4.890625 -0.18359375 C-3 -1 -3 -1 0 0 Z " fill="#5B27A3" transform="translate(385,517)"/>
<path d="M0 0 C0 3.42351594 -0.93191786 4.36616685 -2.86328125 7.04296875 C-4.78739107 10.35561143 -5.71408561 14.0424997 -6.77734375 17.70703125 C-8 20 -8 20 -10.62890625 20.82421875 C-11.41136719 20.88222656 -12.19382812 20.94023437 -13 21 C-10.66666667 16.33333333 -8.33333333 11.66666667 -6 7 C-7.32 7.33 -8.64 7.66 -10 8 C-6.88983545 4.71211176 -3.98381075 2.16264012 0 0 Z " fill="#E0A61E" transform="translate(335,386)"/>
<path d="M0 0 C2.27614919 2.27614919 2.48661411 3.35196821 3.125 6.4375 C3.29257812 7.21996094 3.46015625 8.00242187 3.6328125 8.80859375 C4 11 4 11 4 14 C4.66 14 5.32 14 6 14 C7 19 8 24 9 29 C6.49701566 26.06171403 5.53069061 23.82097239 5 20 C4.34 20 3.68 20 3 20 C3 17.36 3 14.72 3 12 C2.34 12 1.68 12 1 12 C0.63896464 10.18885568 0.28634496 8.37603177 -0.0625 6.5625 C-0.25972656 5.55316406 -0.45695312 4.54382813 -0.66015625 3.50390625 C-0.77230469 2.67761719 -0.88445312 1.85132813 -1 1 C-0.67 0.67 -0.34 0.34 0 0 Z " fill="#5845D4" transform="translate(503,504)"/>
<path d="M0 0 C0.33 0 0.66 0 1 0 C0.42100187 6.59525453 -0.79734737 12.6891618 -2.5625 19.0625 C-2.79646484 19.92810547 -3.03042969 20.79371094 -3.27148438 21.68554688 C-3.8417334 23.79197695 -4.42001834 25.89622889 -5 28 C-5.66 28 -6.32 28 -7 28 C-6.22634796 18.32934955 -3.10004816 9.1472273 0 0 Z " fill="#ED9732" transform="translate(295,431)"/>
<path d="M0 0 C2.58422459 0.11418667 5.16679513 0.24092362 7.75 0.375 C8.47960937 0.4059375 9.20921875 0.436875 9.9609375 0.46875 C13.73942656 0.6748494 16.77946668 0.91512843 20 3 C19.01 3.33 18.02 3.66 17 4 C16.67 4.99 16.34 5.98 16 7 C12.9375 8.1875 12.9375 8.1875 10 9 C10.474375 8.566875 10.94875 8.13375 11.4375 7.6875 C13.23686957 5.97690387 13.23686957 5.97690387 14 3 C7.07 2.505 7.07 2.505 0 2 C0 1.34 0 0.68 0 0 Z " fill="#EA7C44" transform="translate(411,464)"/>
<path d="M0 0 C0.33 0 0.66 0 1 0 C1.054138 2.24973447 1.09285491 4.49984383 1.125 6.75 C1.14820313 8.00296875 1.17140625 9.2559375 1.1953125 10.546875 C1.01537302 13.72820492 0.68998582 15.36521896 -1 18 C-1 16.02 -1 14.04 -1 12 C-2.98 12.99 -2.98 12.99 -5 14 C-3.70022952 9.1008651 -2.07626313 4.62440425 0 0 Z " fill="#0FA3E7" transform="translate(546,408)"/>
<path d="M0 0 C0.66 0.33 1.32 0.66 2 1 C-4.33333333 7.33333333 -10.66666667 13.66666667 -17 20 C-15.55146412 15.38172678 -12.89198185 12.32252558 -9.625 8.875 C-8.90183594 8.08802734 -8.90183594 8.08802734 -8.1640625 7.28515625 C-5.62109942 4.55561708 -3.0773311 2.1147536 0 0 Z " fill="#E74B3D" transform="translate(318,513)"/>
<path d="M0 0 C3.27300996 0.61394071 6.54292425 1.24304636 9.8125 1.875 C11.2056543 2.13603516 11.2056543 2.13603516 12.62695312 2.40234375 C13.51962891 2.57636719 14.41230469 2.75039063 15.33203125 2.9296875 C16.56530151 3.16534424 16.56530151 3.16534424 17.82348633 3.40576172 C20 4 20 4 23 6 C14.42930243 6.53847315 7.86335332 5.4673054 0 2 C0 1.34 0 0.68 0 0 Z " fill="#E1B93E" transform="translate(365,457)"/>
<path d="M0 0 C4.90567888 -0.28301994 7.24528933 -0.16492205 11 3 C8.73194205 3.69809445 6.46133393 4.38371017 4.1875 5.0625 C3.54490234 5.26166016 2.90230469 5.46082031 2.24023438 5.66601562 C-2.66015625 7.11328125 -2.66015625 7.11328125 -6 6 C-3.69 5.01 -1.38 4.02 1 3 C0.67 2.01 0.34 1.02 0 0 Z " fill="#7625B9" transform="translate(452,567)"/>
<path d="M0 0 C0.66 0 1.32 0 2 0 C1.25 4.75 1.25 4.75 -1 7 C-1.67651207 9.19704511 -1.67651207 9.19704511 -2.125 11.625 C-2.37636719 12.85089844 -2.37636719 12.85089844 -2.6328125 14.1015625 C-2.75398438 14.72804688 -2.87515625 15.35453125 -3 16 C-3.66 15.67 -4.32 15.34 -5 15 C-4.72706899 8.8590522 -4.02720165 4.75942013 0 0 Z " fill="#33A04F" transform="translate(331,396)"/>
<path d="M0 0 C3.3104925 2.94111124 4.85717904 5.45570213 6.3125 9.625 C6.65925781 10.58664062 7.00601562 11.54828125 7.36328125 12.5390625 C8 15 8 15 7 17 C5.35 15.02 3.7 13.04 2 11 C2.66 10.67 3.32 10.34 4 10 C3.71125 9.44570313 3.4225 8.89140625 3.125 8.3203125 C2.568125 7.23363281 2.568125 7.23363281 2 6.125 C1.62875 5.40570313 1.2575 4.68640625 0.875 3.9453125 C0 2 0 2 0 0 Z " fill="#A0419A" transform="translate(496,495)"/>
<path d="M0 0 C0.66 0.33 1.32 0.66 2 1 C1.01 2.32 0.02 3.64 -1 5 C0.32 5.33 1.64 5.66 3 6 C0.24075815 7.80411967 -0.88972103 8.0127245 -4.25 7.625 C-5.1575 7.41875 -6.065 7.2125 -7 7 C-4.66666667 4.66666667 -2.33333333 2.33333333 0 0 Z " fill="#5526A6" transform="translate(473,628)"/>
<path d="M0 0 C3.57410797 2.68058098 6.31941902 5.42589203 9 9 C4.96479403 7.41037341 0.98188718 5.71767682 -3 4 C-2.01 2.68 -1.02 1.36 0 0 Z " fill="#0998A5" transform="translate(1154,516)"/>
<path d="M0 0 C-3.53545608 4.32111299 -8.72967032 5.06994182 -14 6 C-5.00826446 -1.66942149 -5.00826446 -1.66942149 0 0 Z " fill="#6B2AA3" transform="translate(385,517)"/>
<path d="M0 0 C0.66 0.33 1.32 0.66 2 1 C0.90344712 2.31886772 -0.20253423 3.62990057 -1.3125 4.9375 C-1.92738281 5.66839844 -2.54226563 6.39929688 -3.17578125 7.15234375 C-5 9 -5 9 -8 10 C-8.33 9.34 -8.66 8.68 -9 8 C-8.34 8 -7.68 8 -7 8 C-6.773125 7.4225 -6.54625 6.845 -6.3125 6.25 C-4.66961977 3.4336339 -2.60466773 1.91922886 0 0 Z " fill="#F08E20" transform="translate(376,472)"/>
<path d="M0 0 C0.66 0.33 1.32 0.66 2 1 C-0.64 3.97 -3.28 6.94 -6 10 C-6.99 9.67 -7.98 9.34 -9 9 C-6.03 6.03 -3.06 3.06 0 0 Z " fill="#EEA533" transform="translate(321,396)"/>
<path d="M0 0 C4.47959418 1.14185734 8.14522751 2.43015167 12 5 C11.01 5.495 11.01 5.495 10 6 C7.875 5.0625 7.875 5.0625 6 4 C5.34 4.66 4.68 5.32 4 6 C2.68 4.02 1.36 2.04 0 0 Z " fill="#4360DB" transform="translate(495,493)"/>
<path d="M0 0 C0.66 0.33 1.32 0.66 2 1 C-1.19990508 3.74277578 -4.00499382 5.6302836 -8 7 C-7.9375 5.1875 -7.9375 5.1875 -7 3 C-3.5625 1.1875 -3.5625 1.1875 0 0 Z " fill="#7129BA" transform="translate(387,523)"/>
<path d="M0 0 C0.99 0.99 1.98 1.98 3 3 C2.21625 3.5775 1.4325 4.155 0.625 4.75 C-1.80047244 6.82897637 -2.85694417 8.09040333 -4 11 C-4.66 10.67 -5.32 10.34 -6 10 C-4.07119658 6.59244728 -2.1723491 3.25852365 0 0 Z " fill="#1CA1BD" transform="translate(1092,464)"/>
<path d="M0 0 C2.22825644 2.22825644 2.69239369 3.65761628 3.625 6.625 C4.01558594 7.85089844 4.01558594 7.85089844 4.4140625 9.1015625 C4.60742188 9.72804688 4.80078125 10.35453125 5 11 C2.5 10 2.5 10 0 8 C-0.46837899 5.20625708 -0.23424505 2.85778964 0 0 Z " fill="#7028BE" transform="translate(380,543)"/>
<path d="M0 0 C0.66 0.33 1.32 0.66 2 1 C1.67 3.97 1.34 6.94 1 10 C0.67 10 0.34 10 0 10 C-0.33 8.35 -0.66 6.7 -1 5 C-1.99 4.67 -2.98 4.34 -4 4 C-2.68 2.68 -1.36 1.36 0 0 Z " fill="#4BB24A" transform="translate(339,384)"/>
<path d="M0 0 C0.66 0 1.32 0 2 0 C1.67 2.31 1.34 4.62 1 7 C-0.65 7.33 -2.3 7.66 -4 8 C-2.66666667 5.33333333 -1.33333333 2.66666667 0 0 Z " fill="#F3AA19" transform="translate(326,399)"/>
<path d="M0 0 C0.99 0.33 1.98 0.66 3 1 C3 1.66 3 2.32 3 3 C1.03852126 4.38938077 -0.96166576 5.7260411 -3 7 C-2.38722388 4.03824877 -1.74627478 2.61941217 0 0 Z " fill="#18AA79" transform="translate(1201,515)"/>
<path d="M0 0 C-1.39332574 3.36720387 -2.9789286 4.9859524 -6 7 C-6.66 6.67 -7.32 6.34 -8 6 C-7.0479279 4.99403703 -6.08812654 3.99538437 -5.125 3 C-4.59132813 2.443125 -4.05765625 1.88625 -3.5078125 1.3125 C-2 0 -2 0 0 0 Z " fill="#22AE8B" transform="translate(1101,457)"/>
<path d="M0 0 C3.7910119 1.44950455 7.3874638 3.15172566 11 5 C9.4375 5.75 9.4375 5.75 7 6 C4.49713591 4.86915563 2.32992278 3.47860484 0 2 C0 1.34 0 0.68 0 0 Z " fill="#ECCC47" transform="translate(347,449)"/>
<path d="M0 0 C0.33 0 0.66 0 1 0 C0.67 2.97 0.34 5.94 0 9 C-0.66 9 -1.32 9 -2 9 C-1.125 1.125 -1.125 1.125 0 0 Z " fill="#EF9940" transform="translate(290,450)"/>
<path d="M0 0 C1.88391785 3.26545761 2.49287967 6.28111761 3 10 C2.34 10 1.68 10 1 10 C-0.1577506 6.52674819 -0.06866652 3.63932552 0 0 Z " fill="#5D3EDF" transform="translate(540,557)"/>
<path d="M0 0 C1.32 0.33 2.64 0.66 4 1 C2.92598892 3.91517292 2.22189824 5.77810176 0 8 C0 5.36 0 2.72 0 0 Z " fill="#169FA6" transform="translate(1105,473)"/>
<path d="M0 0 C0.75 1.75 0.75 1.75 1 4 C-0.9375 6.25 -0.9375 6.25 -3 8 C-3 4.42424104 -1.91159393 2.94704065 0 0 Z " fill="#42A749" transform="translate(334,389)"/>
</svg>
